<mxfile host="app.diagrams.net" agent="Mozilla/5.0 (Windows NT 10.0; Win64; x64) AppleWebKit/537.36 (KHTML, like Gecko) Chrome/130.0.0.0 Safari/537.36" version="24.7.16">
  <diagram name="Side-1" id="pciCoAl_Mzl8FD1TrPOX">
    <mxGraphModel grid="1" page="1" gridSize="10" guides="1" tooltips="1" connect="1" arrows="1" fold="1" pageScale="1" pageWidth="827" pageHeight="1169" math="0" shadow="0">
      <root>
        <mxCell id="0" />
        <mxCell id="1" parent="0" />
        <mxCell id="2ihE_ybqtn657Ny7OkhY-1" value="" style="ellipse;html=1;shape=startState;fillColor=#000000;strokeColor=#ff0000;" vertex="1" parent="1">
          <mxGeometry x="420" y="20" width="30" height="30" as="geometry" />
        </mxCell>
        <mxCell id="2ihE_ybqtn657Ny7OkhY-2" value="" style="edgeStyle=orthogonalEdgeStyle;html=1;verticalAlign=bottom;endArrow=open;endSize=8;strokeColor=#ff0000;rounded=0;" edge="1" parent="1" source="2ihE_ybqtn657Ny7OkhY-1">
          <mxGeometry relative="1" as="geometry">
            <mxPoint x="435" y="110" as="targetPoint" />
          </mxGeometry>
        </mxCell>
        <mxCell id="2ihE_ybqtn657Ny7OkhY-5" value="" style="edgeStyle=orthogonalEdgeStyle;rounded=0;orthogonalLoop=1;jettySize=auto;html=1;" edge="1" parent="1" source="2ihE_ybqtn657Ny7OkhY-3" target="2ihE_ybqtn657Ny7OkhY-4">
          <mxGeometry relative="1" as="geometry" />
        </mxCell>
        <mxCell id="2ihE_ybqtn657Ny7OkhY-3" value="Prompts user to enter title of movie to find." style="rounded=1;whiteSpace=wrap;html=1;" vertex="1" parent="1">
          <mxGeometry x="375" y="110" width="120" height="60" as="geometry" />
        </mxCell>
        <mxCell id="2ihE_ybqtn657Ny7OkhY-7" value="" style="edgeStyle=orthogonalEdgeStyle;rounded=0;orthogonalLoop=1;jettySize=auto;html=1;" edge="1" parent="1" source="2ihE_ybqtn657Ny7OkhY-4" target="2ihE_ybqtn657Ny7OkhY-6">
          <mxGeometry relative="1" as="geometry" />
        </mxCell>
        <mxCell id="2ihE_ybqtn657Ny7OkhY-10" value="" style="edgeStyle=orthogonalEdgeStyle;rounded=0;orthogonalLoop=1;jettySize=auto;html=1;" edge="1" parent="1" source="2ihE_ybqtn657Ny7OkhY-4" target="2ihE_ybqtn657Ny7OkhY-9">
          <mxGeometry relative="1" as="geometry" />
        </mxCell>
        <mxCell id="2ihE_ybqtn657Ny7OkhY-4" value="does the movie exist" style="rhombus;whiteSpace=wrap;html=1;" vertex="1" parent="1">
          <mxGeometry x="395" y="230" width="80" height="80" as="geometry" />
        </mxCell>
        <mxCell id="2ihE_ybqtn657Ny7OkhY-20" style="edgeStyle=orthogonalEdgeStyle;rounded=0;orthogonalLoop=1;jettySize=auto;html=1;entryX=0.5;entryY=0;entryDx=0;entryDy=0;" edge="1" parent="1" source="2ihE_ybqtn657Ny7OkhY-6" target="2ihE_ybqtn657Ny7OkhY-14">
          <mxGeometry relative="1" as="geometry" />
        </mxCell>
        <mxCell id="2ihE_ybqtn657Ny7OkhY-6" value="prints movie details" style="rounded=1;whiteSpace=wrap;html=1;" vertex="1" parent="1">
          <mxGeometry x="540" y="240" width="120" height="60" as="geometry" />
        </mxCell>
        <mxCell id="2ihE_ybqtn657Ny7OkhY-8" value="if yes" style="text;html=1;align=center;verticalAlign=middle;resizable=0;points=[];autosize=1;strokeColor=none;fillColor=none;" vertex="1" parent="1">
          <mxGeometry x="480" y="240" width="50" height="30" as="geometry" />
        </mxCell>
        <mxCell id="2ihE_ybqtn657Ny7OkhY-21" style="edgeStyle=orthogonalEdgeStyle;rounded=0;orthogonalLoop=1;jettySize=auto;html=1;entryX=0;entryY=0.5;entryDx=0;entryDy=0;" edge="1" parent="1" source="2ihE_ybqtn657Ny7OkhY-9" target="2ihE_ybqtn657Ny7OkhY-12">
          <mxGeometry relative="1" as="geometry">
            <Array as="points">
              <mxPoint x="440" y="465" />
            </Array>
          </mxGeometry>
        </mxCell>
        <mxCell id="2ihE_ybqtn657Ny7OkhY-9" value="prints &quot;Movie not found&quot;" style="rounded=1;whiteSpace=wrap;html=1;" vertex="1" parent="1">
          <mxGeometry x="375" y="350" width="120" height="60" as="geometry" />
        </mxCell>
        <mxCell id="2ihE_ybqtn657Ny7OkhY-11" value="if no" style="text;html=1;align=center;verticalAlign=middle;resizable=0;points=[];autosize=1;strokeColor=none;fillColor=none;" vertex="1" parent="1">
          <mxGeometry x="430" y="310" width="50" height="30" as="geometry" />
        </mxCell>
        <mxCell id="2ihE_ybqtn657Ny7OkhY-12" value="" style="ellipse;html=1;shape=endState;fillColor=#000000;strokeColor=#ff0000;" vertex="1" parent="1">
          <mxGeometry x="585" y="450" width="30" height="30" as="geometry" />
        </mxCell>
        <mxCell id="2ihE_ybqtn657Ny7OkhY-15" style="edgeStyle=orthogonalEdgeStyle;rounded=0;orthogonalLoop=1;jettySize=auto;html=1;entryX=0.5;entryY=0;entryDx=0;entryDy=0;" edge="1" parent="1" source="2ihE_ybqtn657Ny7OkhY-14" target="2ihE_ybqtn657Ny7OkhY-6">
          <mxGeometry relative="1" as="geometry">
            <Array as="points">
              <mxPoint x="700" y="380" />
              <mxPoint x="700" y="220" />
              <mxPoint x="600" y="220" />
            </Array>
          </mxGeometry>
        </mxCell>
        <mxCell id="2ihE_ybqtn657Ny7OkhY-17" style="edgeStyle=orthogonalEdgeStyle;rounded=0;orthogonalLoop=1;jettySize=auto;html=1;entryX=0.5;entryY=0;entryDx=0;entryDy=0;" edge="1" parent="1" source="2ihE_ybqtn657Ny7OkhY-14" target="2ihE_ybqtn657Ny7OkhY-12">
          <mxGeometry relative="1" as="geometry" />
        </mxCell>
        <mxCell id="2ihE_ybqtn657Ny7OkhY-14" value="is amount of movies more than x" style="rhombus;whiteSpace=wrap;html=1;" vertex="1" parent="1">
          <mxGeometry x="560" y="340" width="80" height="80" as="geometry" />
        </mxCell>
        <mxCell id="2ihE_ybqtn657Ny7OkhY-16" value="if yes" style="text;html=1;align=center;verticalAlign=middle;resizable=0;points=[];autosize=1;strokeColor=none;fillColor=none;" vertex="1" parent="1">
          <mxGeometry x="650" y="350" width="50" height="30" as="geometry" />
        </mxCell>
        <mxCell id="2ihE_ybqtn657Ny7OkhY-18" value="if no" style="text;html=1;align=center;verticalAlign=middle;resizable=0;points=[];autosize=1;strokeColor=none;fillColor=none;" vertex="1" parent="1">
          <mxGeometry x="600" y="420" width="50" height="30" as="geometry" />
        </mxCell>
        <mxCell id="2ihE_ybqtn657Ny7OkhY-22" value="at index x" style="text;html=1;align=center;verticalAlign=middle;resizable=0;points=[];autosize=1;strokeColor=none;fillColor=none;" vertex="1" parent="1">
          <mxGeometry x="565" y="270" width="70" height="30" as="geometry" />
        </mxCell>
        <mxCell id="2ihE_ybqtn657Ny7OkhY-23" value="x+1" style="text;html=1;align=center;verticalAlign=middle;resizable=0;points=[];autosize=1;strokeColor=none;fillColor=none;" vertex="1" parent="1">
          <mxGeometry x="660" y="190" width="40" height="30" as="geometry" />
        </mxCell>
        <mxCell id="2ihE_ybqtn657Ny7OkhY-24" value="x=0" style="text;html=1;align=center;verticalAlign=middle;resizable=0;points=[];autosize=1;strokeColor=none;fillColor=none;" vertex="1" parent="1">
          <mxGeometry x="490" y="268" width="40" height="30" as="geometry" />
        </mxCell>
      </root>
    </mxGraphModel>
  </diagram>
</mxfile>
